<svg width="51" height="51" viewBox="0 0 51 51" fill="none" xmlns="http://www.w3.org/2000/svg">
<path d="M33.7661 10.3593H29.6822C28.6582 10.3014 27.6337 10.4639 26.6778 10.8356C25.7219 11.2074 24.8569 11.7799 24.1411 12.5145C23.4252 13.249 22.8753 14.1286 22.5284 15.0938C22.1814 16.0589 22.0456 17.0873 22.1299 18.1095V21.6895H18.024C17.8536 21.6895 17.6901 21.7572 17.5696 21.8777C17.4491 21.9982 17.3814 22.1617 17.3814 22.3321V27.5101C17.3814 27.6806 17.4491 27.844 17.5696 27.9645C17.6901 28.085 17.8536 28.1528 18.024 28.1528H22.1299V41.2179C22.1299 41.3884 22.1976 41.5518 22.3181 41.6723C22.4386 41.7928 22.6021 41.8606 22.7725 41.8606H28.1298C28.3002 41.8606 28.4637 41.7928 28.5842 41.6723C28.7047 41.5518 28.7724 41.3884 28.7724 41.2179V28.146H33.5734C33.6578 28.146 33.7413 28.1294 33.8193 28.0971C33.8972 28.0648 33.9681 28.0174 34.0278 27.9578C34.0874 27.8981 34.1348 27.8273 34.1671 27.7493C34.1993 27.6713 34.216 27.5878 34.216 27.5034V22.3253C34.216 22.1549 34.1483 21.9915 34.0278 21.8709C33.9072 21.7504 33.7438 21.6827 33.5734 21.6827H28.7707V18.6456C28.7707 17.1896 29.1174 16.4472 31.0148 16.4472H33.7661C33.9366 16.4472 34.1 16.3795 34.2205 16.259C34.3411 16.1385 34.4088 15.975 34.4088 15.8046V11.0087C34.4096 10.9237 34.3937 10.8395 34.3618 10.7607C34.3299 10.682 34.2827 10.6103 34.2229 10.5499C34.1632 10.4895 34.092 10.4416 34.0136 10.4089C33.9352 10.3762 33.8511 10.3593 33.7661 10.3593V10.3593Z" fill="#FCFDFE"/>
<rect x="1" y="1" width="49" height="49" rx="9" fill="white" fill-opacity="0.47" stroke="white" stroke-width="2"/>
</svg>
