<svg width="51" height="51" viewBox="0 0 51 51" fill="none" xmlns="http://www.w3.org/2000/svg">
<rect x="1" y="1" width="49" height="49" rx="9" fill="white" fill-opacity="0.47" stroke="white" stroke-width="2"/>
<path d="M41.6845 16.2877C40.5235 16.7955 39.2929 17.126 38.0337 17.2682C39.3644 16.4928 40.3563 15.2467 40.8135 13.7759C39.5709 14.5163 38.2089 15.0345 36.7884 15.3072C36.2058 14.6875 35.5048 14.191 34.7268 13.8471C33.9488 13.5032 33.1098 13.319 32.2593 13.3053C31.4088 13.2916 30.5643 13.4487 29.7756 13.7673C28.987 14.0859 28.2703 14.5595 27.668 15.1601C27.0688 15.7415 26.5951 16.4395 26.2761 17.211C25.9571 17.9825 25.7996 18.8112 25.8132 19.646C25.8171 20.1346 25.8718 20.6215 25.9766 21.0988C23.4325 20.9784 20.9446 20.3094 18.6832 19.1377C16.4511 17.9992 14.4817 16.4067 12.9014 14.4623C12.3528 15.4041 12.0556 16.4712 12.0385 17.561C12.0213 18.6508 12.2847 19.7267 12.8033 20.6853C13.2962 21.5947 14.0043 22.3696 14.8657 22.9422C13.8595 22.9068 12.8765 22.6305 11.9993 22.1365V22.2149C11.9791 23.6897 12.4914 25.1223 13.4423 26.2498C14.3628 27.3835 15.6519 28.1584 17.0849 28.4396C16.5403 28.5827 15.9795 28.6552 15.4164 28.6553C15.0152 28.6524 14.6149 28.6196 14.2186 28.5573C14.626 29.8163 15.4162 30.9167 16.4791 31.7051C17.5419 32.4934 18.8243 32.9303 20.1474 32.9549C17.9129 34.7371 15.132 35.6941 12.2739 35.6644C11.7629 35.6677 11.2523 35.6421 10.7442 35.5876C13.6408 37.4712 17.0274 38.4612 20.4824 38.4343C22.6422 38.4498 24.7881 38.0876 26.8231 37.3639C28.6718 36.7239 30.3884 35.7526 31.8891 34.4976C33.2876 33.3013 34.5067 31.9099 35.5089 30.3663C36.4995 28.86 37.2637 27.2165 37.7771 25.4882C38.2688 23.8359 38.5208 22.1216 38.5256 20.3977C38.5256 20.0316 38.5191 19.7593 38.506 19.5806C39.7481 18.6752 40.8235 17.561 41.6845 16.2877Z" fill="#FCFDFE"/>
</svg>
