<svg width="28" height="29" viewBox="0 0 28 29" fill="none" xmlns="http://www.w3.org/2000/svg">
<path fill-rule="evenodd" clip-rule="evenodd" d="M3.75406 1.87703L3.75406 26.2791C3.75406 27.3157 2.71745 28.1561 1.87703 28.1561C0.840424 28.1561 4.27838e-06 27.3157 4.32369e-06 26.2791L5.39034e-06 1.87703C5.43565e-06 0.840418 1.03661 -1.18783e-07 1.87703 -8.20474e-08C2.91364 -3.67358e-08 3.75406 0.840418 3.75406 1.87703V1.87703Z" fill="white"/>
<path fill-rule="evenodd" clip-rule="evenodd" d="M16.3661 8.88801C17.1454 8.10652 17.1448 6.8415 16.3663 6.06081C15.5874 5.27992 14.3253 5.28012 13.5465 6.06081L6.48985 13.1351C5.97016 13.6559 5.97056 14.5009 6.48985 15.0216L13.5465 22.0959C14.3259 22.8772 15.5876 22.8766 16.3663 22.0959C17.145 21.315 17.1448 20.0496 16.3661 19.2687L13.1638 16.059L26.0071 16.059C27.107 16.059 28 15.164 28 14.0598C28 12.9557 27.1078 12.0608 26.0071 12.0608L13.2005 12.0608L16.3661 8.88801Z" fill="white"/>
</svg>
