<svg width="51" height="51" viewBox="0 0 51 51" fill="none" xmlns="http://www.w3.org/2000/svg">
<rect x="1" y="1" width="49" height="49" rx="9" fill="white" fill-opacity="0.47" stroke="white" stroke-width="2"/>
<path d="M41.2381 19.4528C41.213 18.1688 40.9696 16.8985 40.5183 15.6963C40.119 14.6668 39.5093 13.732 38.7281 12.9516C37.9468 12.1713 37.0113 11.5627 35.9814 11.1646C34.779 10.7138 33.5088 10.4704 32.2249 10.4448C30.5672 10.3669 30.0412 10.3479 25.8383 10.3479C21.6354 10.3479 21.1059 10.3669 19.4535 10.4379C18.1695 10.463 16.8992 10.7064 15.697 11.1577C14.6621 11.545 13.7247 12.1545 12.951 12.9434C12.1644 13.7187 11.5557 14.6556 11.167 15.6894C10.7133 16.8913 10.4669 18.1615 10.4386 19.4459C10.3676 21.1035 10.3503 21.6295 10.3503 25.8342C10.3503 30.0388 10.3676 30.5648 10.4386 32.2173C10.4641 33.5013 10.7081 34.7716 11.1601 35.9738C11.5587 37.0028 12.1676 37.9374 12.9479 38.7177C13.7282 39.498 14.6627 40.1069 15.6918 40.5055C16.8942 40.9563 18.1644 41.1997 19.4483 41.2253C21.099 41.2979 21.6267 41.3152 25.8297 41.3152C30.0326 41.3152 30.5603 41.2979 32.211 41.2253C33.495 41.2003 34.7653 40.9569 35.9675 40.5055C36.9969 40.1075 37.9318 39.4988 38.7121 38.7184C39.4925 37.938 40.1012 37.0032 40.4992 35.9738C40.9499 34.7713 41.1933 33.5011 41.219 32.2173C41.2917 30.5666 41.309 30.0388 41.309 25.8359C41.309 21.633 41.309 21.1052 41.2311 19.4545L41.2381 19.4528ZM38.4488 32.0962C38.4387 33.0778 38.2584 34.0502 37.9159 34.9702C37.6578 35.6385 37.2627 36.2454 36.7562 36.752C36.2496 37.2586 35.6426 37.6536 34.9743 37.9117C34.0542 38.2536 33.0819 38.4339 32.1003 38.4447C30.4669 38.5173 29.9772 38.5346 25.8452 38.5346C21.7133 38.5346 21.2167 38.5173 19.5902 38.4447C18.6085 38.4347 17.6361 38.2544 16.7161 37.9117C16.0437 37.6645 15.4357 37.2688 14.9374 36.7542C14.4246 36.2546 14.0297 35.6469 13.7815 34.9754C13.4396 34.0552 13.2593 33.0829 13.2486 32.1014C13.1759 30.4679 13.1586 29.9783 13.1586 25.8463C13.1586 21.7143 13.1759 21.2177 13.2486 19.5912C13.2585 18.6096 13.4388 17.6371 13.7815 16.7172C14.0266 16.0446 14.422 15.4369 14.9374 14.9401C15.4378 14.4268 16.0467 14.0318 16.7196 13.7843C17.6398 13.4425 18.6121 13.2622 19.5936 13.2514C21.227 13.1787 21.7167 13.1614 25.8487 13.1614C29.9807 13.1614 30.4773 13.1804 32.1038 13.2514C33.0854 13.2615 34.0578 13.4418 34.9778 13.7843C35.6501 14.0309 36.2581 14.426 36.7566 14.9401C37.2693 15.4397 37.6642 16.0474 37.9124 16.7189C38.2543 17.6391 38.4346 18.6114 38.4453 19.5929C38.518 21.2264 38.5353 21.716 38.5353 25.848C38.5353 29.98 38.5163 30.4645 38.4453 32.0979L38.4488 32.0962Z" fill="#FCFDFE"/>
<path d="M25.8366 17.8799C24.2624 17.8799 22.7235 18.3467 21.4146 19.2213C20.1057 20.0959 19.0855 21.339 18.4831 22.7934C17.8806 24.2478 17.723 25.8481 18.0301 27.3921C18.3372 28.9361 19.0953 30.3543 20.2084 31.4675C21.3216 32.5806 22.7398 33.3387 24.2838 33.6458C25.8278 33.9529 27.4281 33.7953 28.8825 33.1928C30.3369 32.5904 31.58 31.5702 32.4546 30.2613C33.3292 28.9524 33.796 27.4135 33.796 25.8393C33.796 23.7283 32.9575 21.7038 31.4648 20.2111C29.9721 18.7185 27.9476 17.8799 25.8366 17.8799V17.8799ZM25.8366 30.9956C24.8161 30.9956 23.8185 30.693 22.97 30.126C22.1215 29.5591 21.4601 28.7532 21.0696 27.8104C20.679 26.8676 20.5769 25.8301 20.776 24.8292C20.975 23.8283 21.4665 22.9089 22.1881 22.1873C22.9097 21.4657 23.8291 20.9743 24.83 20.7752C25.8309 20.5761 26.8683 20.6783 27.8111 21.0688C28.754 21.4594 29.5598 22.1207 30.1268 22.9692C30.6938 23.8177 30.9964 24.8153 30.9964 25.8359C30.9959 27.2042 30.4522 28.5163 29.4846 29.4839C28.5171 30.4514 27.2049 30.9952 25.8366 30.9956V30.9956Z" fill="#FCFDFE"/>
<path d="M35.9692 17.5651C35.9692 17.9323 35.8603 18.2913 35.6563 18.5966C35.4523 18.9019 35.1624 19.1399 34.8231 19.2804C34.4839 19.4209 34.1105 19.4577 33.7504 19.3861C33.3902 19.3144 33.0594 19.1376 32.7998 18.8779C32.5401 18.6183 32.3633 18.2875 32.2917 17.9273C32.22 17.5672 32.2568 17.1939 32.3973 16.8546C32.5378 16.5154 32.7758 16.2254 33.0811 16.0214C33.3865 15.8174 33.7454 15.7085 34.1126 15.7085C34.605 15.7085 35.0773 15.9041 35.4255 16.2523C35.7736 16.6005 35.9692 17.0727 35.9692 17.5651V17.5651Z" fill="#FCFDFE"/>
</svg>
